<?xml version="1.0" encoding="UTF-8"?>
<svg version="1.1" xmlns="http://www.w3.org/2000/svg" width="1536" height="1024">
<path d="M0 0 C506.88 0 1013.76 0 1536 0 C1536 337.92 1536 675.84 1536 1024 C1029.12 1024 522.24 1024 0 1024 C0 686.08 0 348.16 0 0 Z " fill="#FDFDFD" transform="translate(0,0)"/>
<path d="M0 0 C3.43248379 0.77374019 6.87408546 1.49225615 10.31982422 2.20458984 C20.96285338 4.41399354 31.54820239 6.61344052 41.95654297 9.76708984 C45.5135207 10.82348548 49.09752367 11.74029884 52.69873047 12.63037109 C53.36654541 12.79657959 54.03436035 12.96278809 54.72241211 13.1340332 C58.31510378 14.02424642 61.91219526 14.89199516 65.51513672 15.73974609 C76.98630697 18.47674812 88.20844264 21.82536336 99.45263672 25.37939453 C107.24740025 27.83904788 115.05387641 30.16856259 122.97265625 32.19677734 C127.86624594 33.48538657 127.86624594 33.48538657 130.07373047 35.69287109 C129.19527466 35.70688965 129.19527466 35.70688965 128.29907227 35.72119141 C74.98077255 36.77240752 35.49847698 55.46061385 -8.36376953 84.13037109 C-9.32669922 84.75967529 -10.28962891 85.38897949 -11.28173828 86.03735352 C-16.95209397 89.74437567 -16.95209397 89.74437567 -22.61523438 93.46240234 C-105.20072682 147.69308332 -191.43915014 156.88075202 -287.20654297 137.22485352 C-295.87451622 135.38720278 -304.41848011 133.16138607 -312.92626953 130.69287109 C-314.66602051 130.18868652 -314.66602051 130.18868652 -316.44091797 129.67431641 C-352.00935296 119.22650683 -385.92804788 105.3069112 -419.92626953 90.69287109 C-419.43126953 89.70287109 -419.43126953 89.70287109 -418.92626953 88.69287109 C-418.30623047 88.88623047 -417.68619141 89.07958984 -417.04736328 89.27880859 C-370.17337499 103.06126221 -322.23394253 87.28564708 -280.92626953 64.88037109 C-268.86673021 58.23044853 -257.0445295 51.17045854 -245.24072266 44.07958984 C-167.06640294 -2.85926393 -90.1840965 -20.66877537 0 0 Z " fill="#64A50A" transform="translate(899.92626953125,521.30712890625)"/>
<path d="M0 0 C11.88 0 23.76 0 36 0 C36.61291134 5.51620205 37.15406016 10.79951408 37.38891602 16.31030273 C37.41832275 16.98186401 37.44772949 17.65342529 37.47802734 18.34533691 C37.57323127 20.5412979 37.66382963 22.73741688 37.75390625 24.93359375 C37.81962219 26.49512714 37.88545614 28.05665557 37.95140076 29.61817932 C38.0888372 32.89193236 38.22379331 36.16577674 38.35717773 39.43969727 C38.4919603 42.7413064 38.63060544 46.04271296 38.77319336 49.34399414 C39.61780263 68.9079028 40.24953261 88.4127749 40 108 C40.92336655 107.60603027 40.92336655 107.60603027 41.86538696 107.20410156 C43.56167676 106.48035125 45.2580187 105.75672313 46.95440674 105.03320312 C48.74557442 104.26866326 50.53586752 103.5020737 52.32568359 102.734375 C53.09219238 102.40953125 53.85870117 102.0846875 54.6484375 101.75 C55.82672119 101.24726563 55.82672119 101.24726563 57.02880859 100.734375 C59 100 59 100 61 100 C60.99476318 99.45400146 60.98952637 98.90800293 60.98413086 98.34545898 C60.89241855 87.17397122 61.01632161 76.05233513 61.57397461 64.89428711 C61.88783662 58.32385526 62.09783884 51.75541476 62.25390625 45.1796875 C62.27464706 44.30583405 62.29538788 43.43198059 62.3167572 42.53164673 C62.41906811 38.14571396 62.51559931 33.75970416 62.60717773 29.37353516 C62.64432696 27.71777251 62.68151616 26.06201075 62.71875 24.40625 C62.73906029 23.31943436 62.73906029 23.31943436 62.75978088 22.21066284 C62.93132366 14.77363636 63.50333542 7.44996873 64 0 C75.55 0 87.1 0 99 0 C100.12518281 10.12664532 100.12518281 10.12664532 100.29711914 15.13964844 C100.3570681 16.8174942 100.3570681 16.8174942 100.41822815 18.52923584 C100.45681442 19.71068176 100.4954007 20.89212769 100.53515625 22.109375 C100.59962196 23.97508148 100.59962196 23.97508148 100.66539001 25.878479 C100.77808116 29.1678492 100.88756222 32.45730677 100.99578857 35.74682617 C101.10605714 39.05790979 101.22256998 42.36877659 101.33789062 45.6796875 C101.42483835 48.23957116 101.51143813 50.79946666 101.59765625 53.359375 C101.63826675 54.532724 101.67887726 55.706073 101.72071838 56.91497803 C101.7759391 58.61173676 101.7759391 58.61173676 101.83227539 60.34277344 C101.86478897 61.31712341 101.89730255 62.29147339 101.93080139 63.29534912 C102.03479202 68.86264273 102 74.43173526 102 80 C94.08 84.29 86.16 88.58 78 93 C83.32125 90.7725 83.32125 90.7725 88.75 88.5 C96.91583634 85.09115778 105.09613684 81.7228194 113.3125 78.4375 C114.1468457 78.10363281 114.98119141 77.76976562 115.84082031 77.42578125 C124.76901588 73.87093299 124.76901588 73.87093299 129.44921875 73.90234375 C130.21322998 73.90484131 130.97724121 73.90733887 131.7644043 73.90991211 C132.72902588 73.91901611 133.69364746 73.92812012 134.6875 73.9375 C139.2971875 73.9684375 139.2971875 73.9684375 144 74 C144 66.08 144 58.16 144 50 C164.52501124 40.92445767 185.06620376 31.89635736 205.75 23.1875 C206.92106293 22.69334595 206.92106293 22.69334595 208.11578369 22.18920898 C234.65679529 11 234.65679529 11 238 11 C239.19661748 12.14348171 240.38590153 13.2958329 241.53271484 14.48925781 C244.18963663 17.22487046 247.01549276 19.78408404 249.8125 22.375 C250.43632568 22.9537085 251.06015137 23.53241699 251.70288086 24.12866211 C255.37086475 27.52158302 259.0810722 30.851853 262.86328125 34.1171875 C265.86624637 36.76331033 268.80820253 39.47371728 271.75 42.1875 C272.3056665 42.69933838 272.86133301 43.21117676 273.43383789 43.73852539 C274.48740877 44.71300271 275.53762083 45.69112756 276.58398438 46.67333984 C277.82079221 47.83210084 279.07320137 48.97416433 280.328125 50.11328125 C283.55281842 53.75236284 283.17222302 58.03812123 283.31640625 62.734375 C283.35451416 63.90194336 283.39262207 65.06951172 283.43188477 66.27246094 C283.47498779 67.75004883 283.51809082 69.22763672 283.5625 70.75 C283.706875 75.4525 283.85125 80.155 284 85 C298.19 85 312.38 85 327 85 C327 105.46 327 125.92 327 147 C321.39 145.68 315.78 144.36 310 143 C265.09001264 133.318171 216.41985944 126.80504928 171 137 C169.93555664 137.23605957 168.87111328 137.47211914 167.77441406 137.71533203 C131.08998165 146.13960723 98.89711079 164.02647976 67.1875 183.6875 C66.28008057 184.24937012 65.37266113 184.81124023 64.43774414 185.39013672 C63.56110107 185.93299316 62.68445801 186.47584961 61.78125 187.03515625 C60.9459375 187.55223145 60.110625 188.06930664 59.25 188.60205078 C57.44265499 189.72497369 55.64207734 190.85878525 53.84375 191.99609375 C44.26706715 197.86885367 33.87313505 202.27734618 23.62255859 206.83007812 C22.01426493 207.547537 20.41148477 208.27772333 18.81884766 209.02929688 C14.32492792 211.10830931 14.32492792 211.10830931 11 210 C11.76183594 209.25169922 11.76183594 209.25169922 12.5390625 208.48828125 C23.5676106 196.98472078 27.41606489 183.62766428 27.29638672 168.02416992 C26.84124798 151.74052984 19.21042265 135.74051269 8 124 C7.02675781 123.29101562 6.05351563 122.58203125 5.05078125 121.8515625 C0.42802936 118.09890604 -2.6034035 114.91696152 -3.41578674 108.94189453 C-3.53014431 105.16569533 -3.48135847 101.41119033 -3.37109375 97.63671875 C-3.34796046 96.21650776 -3.32687911 94.79626204 -3.307724 93.37599182 C-3.25029318 89.65727965 -3.16018118 85.94015353 -3.05910492 82.22239685 C-3.00154636 80.05814451 -2.95095951 77.89385764 -2.90313721 75.72937012 C-2.70160579 66.66608949 -2.43099763 57.60603871 -2.13116455 48.54553223 C-2.03837155 45.69674597 -1.95138873 42.84779366 -1.86443424 39.99882412 C-1.77818619 37.18879866 -1.68915227 34.37886681 -1.59924126 31.56895638 C-1.53782501 29.64231339 -1.47799064 27.71562017 -1.41822815 25.78892517 C-1.13028017 17.16525132 -0.57473667 8.62105004 0 0 Z " fill="#0B284E" transform="translate(580,366)"/>
<path d="M0 0 C-0.36351562 1.52753906 -0.36351562 1.52753906 -0.734375 3.0859375 C-1.63971935 6.90050363 -2.53245933 10.71793828 -3.42236328 14.53613281 C-3.98105283 16.91918222 -4.55084382 19.29938305 -5.12109375 21.6796875 C-7.19547824 30.46773877 -8.78492806 38.93892584 -9 48 C-9.0306958 49.28801514 -9.0306958 49.28801514 -9.06201172 50.60205078 C-9.38905844 66.66518005 -9.09713277 82.38960655 -5 98 C-4.78859375 98.92683594 -4.5771875 99.85367188 -4.359375 100.80859375 C0.67851672 122.54257534 9.93753732 143.06977587 22.78417969 161.2734375 C35.65367317 179.54915193 45.33600057 198.70366039 41.53515625 221.828125 C37.52638341 236.9143944 27.07266944 246.3627045 14 254 C13.34 254 12.68 254 12 254 C9.24834437 251.08793395 6.8327627 247.89622324 4.36669922 244.74072266 C3.45170893 243.57532773 2.52874932 242.41614815 1.59814453 241.26318359 C-15.76762768 219.73434341 -29.21194577 193.12441099 -35 166 C-35.34893195 164.48436893 -35.697892 162.96874432 -36.046875 161.453125 C-38.87088283 148.72348393 -40.12977736 135.99673972 -41 123 C-41.05016334 128.13711186 -41.08607287 133.27407514 -41.10986328 138.41137695 C-41.11980124 140.15196217 -41.13335628 141.89253125 -41.15087891 143.63305664 C-41.28826553 157.65053328 -40.37635112 171.08990281 -37.25 184.8125 C-36.99730347 185.9269751 -36.99730347 185.9269751 -36.73950195 187.06396484 C-31.06371258 211.11717645 -20.87523134 232.70922151 -6.1862793 252.52197266 C-4.34270971 255.02023679 -2.99003126 257.02990621 -2 260 C-15.82434117 264.42378917 -30.37368798 262.59513144 -43.1875 256.25 C-48.86674224 253.31695298 -54.22878003 250.29712412 -59 246 C-60.17755859 244.95972656 -60.17755859 244.95972656 -61.37890625 243.8984375 C-79.14585689 227.24361659 -89.49360072 202.24913715 -91.28662109 178.1472168 C-91.40046883 174.23885891 -91.41692439 170.34724862 -91.375 166.4375 C-91.37001495 165.74479004 -91.36502991 165.05208008 -91.3598938 164.33837891 C-91.12005972 135.70587915 -84.79613512 109.65143691 -72 84 C-71.62053223 83.2354248 -71.24106445 82.47084961 -70.85009766 81.68310547 C-66.17672877 72.35832715 -61.09268013 63.48470067 -55 55 C-54.55785156 54.3827002 -54.11570312 53.76540039 -53.66015625 53.12939453 C-46.98249646 43.86165329 -39.9750711 35.19325701 -32 27 C-31.41283203 26.39236816 -30.82566406 25.78473633 -30.22070312 25.15869141 C-22.86031983 17.56853351 -15.47150115 10.36132723 -7 4 C-6.12601563 3.27167969 -5.25203125 2.54335938 -4.3515625 1.79296875 C-2 0 -2 0 0 0 Z " fill="#68A80A" transform="translate(559,335)"/>
<path d="M0 0 C6.12746868 4.83891822 11.84112456 11.77153168 12.93359375 19.62890625 C13.82884766 19.19578125 13.82884766 19.19578125 14.7421875 18.75390625 C25.12578507 14.31040536 36.37682787 13.66673484 47.06567383 17.47827148 C57.42528945 21.64072233 64.49280172 26.7451145 69.93359375 36.62890625 C72.30067215 43.73014144 72.05823031 52.25092383 68.93359375 59.06640625 C65.26935855 65.39553978 59.50594318 70.43154707 52.93359375 73.62890625 C40.43928812 76.96072109 26.26150314 75.56061153 14.93359375 69.62890625 C14.28374512 69.29117188 13.63389648 68.9534375 12.96435547 68.60546875 C5.17974736 64.51651045 -2.2255137 60.18713144 -9.06640625 54.62890625 C-8.6796875 55.04140625 -8.29296875 55.45390625 -7.89453125 55.87890625 C-1.02603459 63.495457 2.0670751 70.41705919 2.12109375 80.69140625 C2.13527344 81.91988281 2.14945313 83.14835937 2.1640625 84.4140625 C1.93359375 87.62890625 1.93359375 87.62890625 -0.06640625 90.62890625 C-0.65808594 90.21898437 -1.24976563 89.8090625 -1.859375 89.38671875 C-2.64957031 88.84789062 -3.43976563 88.3090625 -4.25390625 87.75390625 C-5.03121094 87.22023438 -5.80851563 86.6865625 -6.609375 86.13671875 C-12.0743781 82.78299665 -16.74207114 81.80908503 -23.06640625 82.62890625 C-29.42109883 84.47102531 -33.6972982 88.91942806 -38.44140625 93.31640625 C-48.33139597 102.02901624 -60.15028449 107.48310882 -73.51171875 106.8828125 C-81.43203362 106.09562524 -87.29064741 103.82571196 -94.06640625 99.62890625 C-94.06640625 99.29890625 -94.06640625 98.96890625 -94.06640625 98.62890625 C-93.17179688 98.5309375 -92.2771875 98.43296875 -91.35546875 98.33203125 C-80.00072092 96.92781937 -69.66673787 94.83700033 -62.06640625 85.62890625 C-59.78878343 81.74040062 -57.85796939 77.76171668 -56.06640625 73.62890625 C-57.05640625 74.28890625 -58.04640625 74.94890625 -59.06640625 75.62890625 C-64.68204977 78.36191926 -70.7489159 81.23445628 -77.06640625 79.62890625 C-78.88544342 78.6796048 -80.67565812 77.6739914 -82.44140625 76.62890625 C-87.82251322 73.4675059 -91.90816737 72.582117 -98.06640625 73.62890625 C-101.13838523 74.20539751 -101.13838523 74.20539751 -103.06640625 76.62890625 C-103.96672659 79.38131415 -104.63481451 82.09635504 -105.1953125 84.9375 C-106.22164234 88.10853705 -107.54011814 89.5002297 -110.06640625 91.62890625 C-112.62019328 92.90579976 -114.91656446 92.78470193 -117.72802734 92.86767578 C-131.27016048 93.30639325 -143.24086312 96.98900557 -153.20703125 106.71875 C-156.0151253 109.88670485 -158.53845341 113.23573145 -161.06640625 116.62890625 C-161.99067706 102.99591183 -156.61276692 90.7292889 -147.87890625 80.50390625 C-142.37155007 74.61039154 -136.29046258 68.81002072 -128.06640625 67.62890625 C-128.00453125 66.49453125 -127.94265625 65.36015625 -127.87890625 64.19140625 C-126.79111315 55.75728441 -121.60780074 48.82951802 -115.06640625 43.62890625 C-107.96329377 39.14567944 -100.32272952 37.49799291 -92.06640625 36.62890625 C-103.56345182 33.41952918 -115.5034359 32.68727172 -126.4453125 38.12109375 C-127.31027344 38.61867188 -128.17523437 39.11625 -129.06640625 39.62890625 C-129.81792969 40.04398437 -130.56945312 40.4590625 -131.34375 40.88671875 C-139.28560901 46.14299433 -144.24254428 54.84693738 -149.59619141 62.52783203 C-159.8121585 77.12740241 -170.49922974 83.07443649 -187.7578125 86.85546875 C-196.29565086 88.85132707 -203.92781563 91.48442898 -211.06640625 96.62890625 C-211.91203125 97.18578125 -212.75765625 97.74265625 -213.62890625 98.31640625 C-218.71491168 103.14159089 -222.67366765 109.04003494 -225.06640625 115.62890625 C-225.39640625 115.62890625 -225.72640625 115.62890625 -226.06640625 115.62890625 C-228.53980916 105.21246148 -228.38769572 93.08731092 -223.06640625 83.62890625 C-215.89966383 73.2913252 -206.55039428 69.63011475 -195.06640625 65.62890625 C-189.79629544 63.73555495 -189.79629544 63.73555495 -186.06640625 59.62890625 C-185.92097674 57.7159489 -185.84561825 55.79716124 -185.81640625 53.87890625 C-185.46100962 48.541495 -184.43349988 45.75633977 -180.734375 41.93359375 C-176.59995121 38.69964165 -173.56699725 38.39889443 -168.31640625 38.50390625 C-167.1459375 38.52195312 -165.97546875 38.54 -164.76953125 38.55859375 C-163.8775 38.58179688 -162.98546875 38.605 -162.06640625 38.62890625 C-161.93685547 37.6853125 -161.93685547 37.6853125 -161.8046875 36.72265625 C-160.7533048 30.31790295 -158.88093271 25.84755288 -155.06640625 20.62890625 C-154.20015625 19.29859375 -154.20015625 19.29859375 -153.31640625 17.94140625 C-145.83872357 10.25601017 -135.20921073 7.58025035 -124.81640625 7.25390625 C-111.51228022 7.38021124 -99.35819679 11.88957306 -87.88671875 18.37109375 C-85.25815945 19.81593814 -85.25815945 19.81593814 -82.96484375 19.44921875 C-82.33835937 19.17851562 -81.711875 18.9078125 -81.06640625 18.62890625 C-80.33421875 18.31953125 -79.60203125 18.01015625 -78.84765625 17.69140625 C-77.7184375 17.16546875 -77.7184375 17.16546875 -76.56640625 16.62890625 C-68.64895066 12.94132419 -60.20311869 12.12869818 -51.72265625 14.60546875 C-46.51897812 16.70497255 -42.36204605 18.98695077 -38.06640625 22.62890625 C-39.84423603 17.13379603 -42.5618846 13.12121708 -47.51171875 10.171875 C-53.5640856 7.1104008 -58.43919005 5.50404857 -65.25390625 5.06640625 C-66.52621094 4.98261719 -67.79851562 4.89882812 -69.109375 4.8125 C-70.57310547 4.72162109 -70.57310547 4.72162109 -72.06640625 4.62890625 C-53.62585593 -16.27038412 -21.60898624 -14.33790958 0 0 Z " fill="#93939A" transform="translate(821.06640625,223.37109375)"/>
<path d="M0 0 C1.58941406 0.01353516 1.58941406 0.01353516 3.2109375 0.02734375 C4.00757813 0.03894531 4.80421875 0.05054688 5.625 0.0625 C2.82530097 1.92896602 0.59428201 2.7050396 -2.61523438 3.55761719 C-32.71882902 11.55861833 -59.0208672 28.64176975 -84.8125 45.5 C-85.77542969 46.1293042 -86.73835938 46.7586084 -87.73046875 47.40698242 C-93.40082444 51.11400458 -93.40082444 51.11400458 -99.06396484 54.83203125 C-181.64945729 109.06271222 -267.88788061 118.25038093 -363.65527344 98.59448242 C-372.32324669 96.75683168 -380.86721058 94.53101498 -389.375 92.0625 C-391.11475098 91.55831543 -391.11475098 91.55831543 -392.88964844 91.04394531 C-428.45808343 80.59613573 -462.37677835 66.67654011 -496.375 52.0625 C-496.045 51.4025 -495.715 50.7425 -495.375 50.0625 C-494.75496094 50.25585938 -494.13492187 50.44921875 -493.49609375 50.6484375 C-460.36862516 60.38897412 -419.29518422 56.52259211 -388.375 41.0625 C-381.62469896 40.06771879 -376.02583241 41.62840851 -369.703125 43.92553711 C-363.07297384 46.29050014 -356.29767485 47.83691109 -349.43237305 49.36206055 C-348.57426025 49.55582275 -347.71614746 49.74958496 -346.83203125 49.94921875 C-346.06866455 50.11639404 -345.30529785 50.28356934 -344.51879883 50.45581055 C-342.29438168 51.08531477 -340.40477973 51.96542291 -338.375 53.0625 C-341.53588282 56.22338282 -345.53076633 56.48658235 -349.8125 57.4375 C-350.77518799 57.65374023 -351.73787598 57.86998047 -352.72973633 58.09277344 C-373.36728909 62.56755603 -394.22234267 65.25005975 -415.33447266 65.24780273 C-417.60728887 65.24998301 -419.87961321 65.26819043 -422.15234375 65.28710938 C-431.75483379 65.32370145 -440.86946761 64.51158241 -450.375 63.0625 C-453.37275515 62.69964277 -456.37189225 62.3786166 -459.375 62.0625 C-419.30771725 71.51947877 -377.93666584 73.40302898 -337.375 66.0625 C-335.88285825 65.80962575 -334.39067687 65.55698507 -332.8984375 65.3046875 C-325.36199913 63.92432931 -318.02818134 61.94716324 -310.7121582 59.68774414 C-310.00406006 59.47754639 -309.29596191 59.26734863 -308.56640625 59.05078125 C-307.94967041 58.86040283 -307.33293457 58.67002441 -306.69750977 58.47387695 C-301.0833861 57.47946947 -295.80720625 58.04366838 -290.27546692 59.11068726 C-277.1288146 61.63328749 -264.02758701 61.52437491 -250.6875 61.4375 C-249.48165253 61.43417664 -248.27580505 61.43085327 -247.03341675 61.4274292 C-215.49193342 61.70666877 -215.49193342 61.70666877 -184.49682617 56.59375 C-180.70179009 55.64357182 -176.83954298 55.04040458 -172.98803711 54.36401367 C-161.75688563 52.38694739 -150.76364234 50.1597706 -139.85888672 46.82080078 C-136.9541429 45.93401738 -134.04150883 45.07545503 -131.12890625 44.21484375 C-119.62626386 40.78090626 -108.34944665 37.08187614 -97.21875 32.5859375 C-93.85317659 31.23008273 -90.45467677 30.05047576 -87 28.9375 C-82.16856717 27.37090462 -77.52945035 25.51451774 -72.85546875 23.53125 C-56.90750689 16.80124589 -40.71989874 10.75650721 -24.375 5.0625 C-23.31667969 4.69318359 -22.25835938 4.32386719 -21.16796875 3.94335938 C-20.12253906 3.58564453 -19.07710937 3.22792969 -18 2.859375 C-16.59621094 2.37742676 -16.59621094 2.37742676 -15.1640625 1.88574219 C-10.07788616 0.38446535 -5.28616997 -0.05873522 0 0 Z " fill="#23780A" transform="translate(976.375,559.9375)"/>
<path d="M0 0 C11.55 0 23.1 0 35 0 C36.12518281 10.12664532 36.12518281 10.12664532 36.29711914 15.13964844 C36.3570681 16.8174942 36.3570681 16.8174942 36.41822815 18.52923584 C36.45681442 19.71068176 36.4954007 20.89212769 36.53515625 22.109375 C36.57813339 23.35317932 36.62111053 24.59698364 36.66539001 25.878479 C36.77808116 29.1678492 36.88756222 32.45730677 36.99578857 35.74682617 C37.10605714 39.05790979 37.22256998 42.36877659 37.33789062 45.6796875 C37.42483835 48.23957116 37.51143813 50.79946666 37.59765625 53.359375 C37.63826675 54.532724 37.67887726 55.706073 37.72071838 56.91497803 C37.7759391 58.61173676 37.7759391 58.61173676 37.83227539 60.34277344 C37.86478897 61.31712341 37.89730255 62.29147339 37.93080139 63.29534912 C38.03479202 68.86264273 38 74.43173526 38 80 C30.08 84.29 22.16 88.58 14 93 C19.32125 90.7725 19.32125 90.7725 24.75 88.5 C32.89845656 85.10051678 41.0578149 81.73034681 49.25 78.4375 C50.0759668 78.10363281 50.90193359 77.76976562 51.75292969 77.42578125 C52.52024414 77.11898437 53.28755859 76.8121875 54.078125 76.49609375 C54.74231445 76.22982178 55.40650391 75.9635498 56.09082031 75.68920898 C58.04088779 74.98523961 59.98681434 74.48911859 62 74 C62.89216201 81.32836076 63.13419743 88.53630976 63.09765625 95.9140625 C63.0962413 97.00971527 63.09482635 98.10536804 63.09336853 99.23422241 C63.08781771 102.69784395 63.07527459 106.16139834 63.0625 109.625 C63.05747864 111.98828031 63.05291685 114.35156164 63.04882812 116.71484375 C63.03786444 122.47658501 63.02117606 128.2382877 63 134 C61.23746686 134.80673042 59.47432978 135.61214145 57.7109375 136.41699219 C56.72915527 136.86564636 55.74737305 137.31430054 54.73583984 137.77655029 C51.86153816 139.06191923 48.97061658 140.20674775 46 141.25 C45.113125 141.56453125 44.22625 141.8790625 43.3125 142.203125 C41.54510668 142.81215918 39.77345471 143.40884843 38 144 C38 144.66 38 145.32 38 146 C36.94941406 146.51949219 35.89882813 147.03898438 34.81640625 147.57421875 C20.20631865 154.67824152 20.20631865 154.67824152 6.7265625 163.66796875 C3.77243698 165.94705654 2.22665321 166.97614177 -1.5625 167.375 C-2.696875 167.58125 -3.83125 167.7875 -5 168 C-5.268125 168.58523438 -5.53625 169.17046875 -5.8125 169.7734375 C-7.54692985 173.02549347 -10.35578616 174.43128364 -13.4375 176.25 C-14.02337891 176.61351562 -14.60925781 176.97703125 -15.21289062 177.3515625 C-18.0233388 179.04867763 -19.66000574 180 -23 180 C-23.33 156.24 -23.66 132.48 -24 108 C-5 100 -5 100 -3 100 C-3.00785522 99.1810022 -3.00785522 99.1810022 -3.01586914 98.34545898 C-3.10758145 87.17397122 -2.98367839 76.05233513 -2.42602539 64.89428711 C-2.11216338 58.32385526 -1.90216116 51.75541476 -1.74609375 45.1796875 C-1.72535294 44.30583405 -1.70461212 43.43198059 -1.6832428 42.53164673 C-1.58093189 38.14571396 -1.48440069 33.75970416 -1.39282227 29.37353516 C-1.35567304 27.71777251 -1.31848384 26.06201075 -1.28125 24.40625 C-1.26770981 23.68170624 -1.25416962 22.95716248 -1.24021912 22.21066284 C-1.06867634 14.77363636 -0.49666458 7.44996873 0 0 Z " fill="#1F6FB2" transform="translate(644,366)"/>
<path d="M0 0 C0 34.65 0 69.3 0 105 C-24.255 105.99 -24.255 105.99 -49 107 C-62.0808752 108.65966922 -62.0808752 108.65966922 -75 111 C-76.15121338 111.23517334 -76.15121338 111.23517334 -77.32568359 111.47509766 C-80.3812918 112.10505664 -83.42574384 112.76207575 -86.4609375 113.484375 C-89 114 -89 114 -93 114 C-93.95374728 97.19813419 -94.12224636 80.45092727 -94.0625 63.625 C-94.05746818 61.12369883 -94.05290829 58.62239666 -94.04882812 56.12109375 C-94.03797138 50.0807069 -94.02137022 44.04035834 -94 38 C-73.47731555 28.91967121 -52.93360391 19.89627638 -32.25 11.1875 C-31.46929138 10.85806396 -30.68858276 10.52862793 -29.88421631 10.18920898 C-24.93271457 8.10174568 -19.97299591 6.03574106 -15 4 C-14.0251062 3.59977631 -14.0251062 3.59977631 -13.03051758 3.19146729 C-11.20650685 2.44751176 -9.37682558 1.71750402 -7.546875 0.98828125 C-6.51916992 0.57747314 -5.49146484 0.16666504 -4.43261719 -0.2565918 C-2 -1 -2 -1 0 0 Z " fill="#1F6FB2" transform="translate(818,378)"/>
<path d="M0 0 C11.55 0 23.1 0 35 0 C36.12518281 10.12664532 36.12518281 10.12664532 36.29711914 15.13964844 C36.3570681 16.8174942 36.3570681 16.8174942 36.41822815 18.52923584 C36.45681442 19.71068176 36.4954007 20.89212769 36.53515625 22.109375 C36.57813339 23.35317932 36.62111053 24.59698364 36.66539001 25.878479 C36.77808116 29.1678492 36.88756222 32.45730677 36.99578857 35.74682617 C37.10605714 39.05790979 37.22256998 42.36877659 37.33789062 45.6796875 C37.42483835 48.23957116 37.51143813 50.79946666 37.59765625 53.359375 C37.63826675 54.532724 37.67887726 55.706073 37.72071838 56.91497803 C37.97124024 64.61272553 38.04607847 72.29838336 38 80 C3.42303088 99 3.42303088 99 -3 99 C-3.10563938 87.62616055 -2.99137858 76.30573452 -2.42602539 64.94506836 C-2.11295175 58.3564145 -1.90262973 51.7696715 -1.74609375 45.17578125 C-1.71498253 43.86537117 -1.71498253 43.86537117 -1.6832428 42.52848816 C-1.58092158 38.14368976 -1.48437592 33.75881477 -1.39282227 29.3737793 C-1.35567278 27.71793527 -1.31848357 26.06209214 -1.28125 24.40625 C-1.26770981 23.6817012 -1.25416962 22.9571524 -1.24021912 22.21064758 C-1.06867527 14.77362618 -0.49666425 7.44996382 0 0 Z " fill="#0B284E" transform="translate(644,366)"/>
<path d="M0 0 C0 0.33 0 0.66 0 1 C-0.67651611 1.08975098 -1.35303223 1.17950195 -2.05004883 1.27197266 C-19.60093942 3.63921296 -36.79025999 6.8261263 -54 11 C-55.10311523 11.26683594 -56.20623047 11.53367187 -57.34277344 11.80859375 C-75.12114059 16.1582323 -92.59014896 21.36526331 -110 27 C-110.69540894 27.22449829 -111.39081787 27.44899658 -112.1072998 27.68029785 C-133.06243073 34.45110776 -153.77002687 41.73032694 -174.33666992 49.6015625 C-188.26864916 54.91994817 -202.26847742 60.05556588 -216.26635742 65.19726562 C-218.76503022 66.11529089 -221.26338858 67.03416781 -223.76171875 67.953125 C-224.51692307 68.23021301 -225.27212738 68.50730103 -226.05021667 68.79278564 C-226.75898453 69.05355896 -227.46775238 69.31433228 -228.19799805 69.58300781 C-229.18876846 69.94537537 -229.18876846 69.94537537 -230.19955444 70.31506348 C-231.7626626 70.90971065 -233.29839718 71.57537124 -234.82739258 72.25292969 C-237 73 -237 73 -240 72 C-238.26943359 71.06994141 -238.26943359 71.06994141 -236.50390625 70.12109375 C-219.03509126 60.661624 -201.99058452 50.50649591 -185.25 39.8125 C-156.9479561 21.78514537 -126.93859161 5.53048882 -94 -2 C-93.30874023 -2.16371094 -92.61748047 -2.32742188 -91.90527344 -2.49609375 C-62.05925811 -9.21179408 -29.7288982 -5.26026622 0 0 Z " fill="#06561A" transform="translate(1084,585)"/>
<path d="M0 0 C0 0.33 0 0.66 0 1 C-0.60247559 1.09498779 -1.20495117 1.18997559 -1.82568359 1.2878418 C-34.38973556 6.49475274 -64.20211244 17.76960382 -94.42752075 30.64176941 C-129.70255893 45.63657393 -165.19408148 58.15395836 -203 65 C-203.94633301 65.17934082 -204.89266602 65.35868164 -205.86767578 65.54345703 C-236.09276017 71.11487566 -295.68241199 75.54505867 -322 58 C-317.05338086 57.7849296 -312.73915839 58.34460175 -307.91796875 59.46484375 C-298.19072017 61.24882374 -288.35643847 61.24100328 -278.5 61.25 C-277.34682281 61.25151062 -277.34682281 61.25151062 -276.17034912 61.25305176 C-254.76521301 61.23421652 -233.90243784 58.56094446 -213 54 C-212.05398926 53.79536133 -211.10797852 53.59072266 -210.13330078 53.37988281 C-180.05277085 46.76997165 -151.30576498 36.35668278 -122.3515625 26.0390625 C-83.2970874 12.12397408 -42.04895604 -1.5967958 0 0 Z " fill="#F7FAF5" transform="translate(836,563)"/>
<path d="M0 0 C1.80717107 0.63350283 3.61417969 1.2677081 5.4140625 1.92163086 C12.04421366 4.28659389 18.81951265 5.83300484 25.68481445 7.3581543 C26.54292725 7.5519165 27.40104004 7.74567871 28.28515625 7.9453125 C29.04852295 8.11248779 29.81188965 8.27966309 30.59838867 8.4519043 C32.82280582 9.08140852 34.71240777 9.96151666 36.7421875 11.05859375 C33.58130468 14.21947657 29.58642117 14.4826761 25.3046875 15.43359375 C24.34199951 15.64983398 23.37931152 15.86607422 22.38745117 16.08886719 C1.74989841 20.56364978 -19.10515517 23.2461535 -40.21728516 23.24389648 C-42.49010137 23.24607676 -44.76242571 23.26428418 -47.03515625 23.28320312 C-56.63205985 23.3193695 -65.77345892 22.52202682 -75.2578125 21.05859375 C-78.25553074 20.6955153 -81.25471504 20.37470927 -84.2578125 20.05859375 C-83.2678125 20.71859375 -82.2778125 21.37859375 -81.2578125 22.05859375 C-81.9178125 22.05859375 -82.5778125 22.05859375 -83.2578125 22.05859375 C-83.2578125 22.71859375 -83.2578125 23.37859375 -83.2578125 24.05859375 C-82.55914063 24.26355469 -81.86046875 24.46851563 -81.140625 24.6796875 C-80.23054687 24.94910156 -79.32046875 25.21851563 -78.3828125 25.49609375 C-77.47789062 25.76292969 -76.57296875 26.02976562 -75.640625 26.3046875 C-73.2578125 27.05859375 -73.2578125 27.05859375 -71.2578125 28.05859375 C-71.2578125 28.71859375 -71.2578125 29.37859375 -71.2578125 30.05859375 C-79.13876728 27.93126696 -86.52245839 24.98112192 -94.0078125 21.74609375 C-95.14782715 21.25842529 -96.2878418 20.77075684 -97.46240234 20.26831055 C-100.72956211 18.86972791 -103.99384079 17.46459627 -107.2578125 16.05859375 C-108.8590892 15.37302999 -110.46061136 14.68803893 -112.0625 14.00390625 C-115.12968209 12.69360666 -118.19474726 11.37849641 -121.2578125 10.05859375 C-120.9278125 9.39859375 -120.5978125 8.73859375 -120.2578125 8.05859375 C-119.63777344 8.25195312 -119.01773437 8.4453125 -118.37890625 8.64453125 C-77.51453495 20.65996502 -34.44115178 -9.95241916 0 0 Z " fill="#156F10" transform="translate(601.2578125,601.94140625)"/>
<path d="M0 0 C0.33 0 0.66 0 1 0 C1 3.3 1 6.6 1 10 C15.19 10 29.38 10 44 10 C44 30.46 44 50.92 44 72 C43.01 71.505 43.01 71.505 42 71 C42 52.52 42 34.04 42 15 C40.68 19.29 39.36 23.58 38 28 C31.73 28.33 25.46 28.66 19 29 C18.67 29.66 18.34 30.32 18 31 C18.99 31.33 19.98 31.66 21 32 C21 33.65 21 35.3 21 37 C21.66 37 22.32 37 23 37 C23 35.35 23 33.7 23 32 C26.63 32 30.26 32 34 32 C34 38.93 34 45.86 34 53 C8.76699029 51.88349515 8.76699029 51.88349515 1 48 C0.34778886 31.99307343 -0.1661172 16.02108104 0 0 Z " fill="#1A5C9B" transform="translate(863,441)"/>
<path d="M0 0 C10.89 0 21.78 0 33 0 C35.013841 6.04152299 34.60275484 12.64407742 35 19 C23.12 19 11.24 19 -1 19 C-0.67 12.73 -0.34 6.46 0 0 Z " fill="#0E2B51" transform="translate(581,344)"/>
<path d="M0 0 C10.56 0 21.12 0 32 0 C34 11 34 11 34 19 C22.45 19 10.9 19 -1 19 C-0.67 12.73 -0.34 6.46 0 0 Z " fill="#142E53" transform="translate(645,344)"/>
<path d="M0 0 C1.90494895 22.7641399 1.90494895 22.7641399 -1.12939453 27.91845703 C-4.97886093 31.57957033 -9.80043027 33 -15 33 C-15 23.76 -15 14.52 -15 5 C-2 0 -2 0 0 0 Z " fill="#F4F7FA" transform="translate(644,506)"/>
<path d="M0 0 C0 8.25 0 16.5 0 25 C-3.3 25.66 -6.6 26.32 -10 27 C-11.32 27.33 -12.64 27.66 -14 28 C-14 20.08 -14 12.16 -14 4 C-4 0 -4 0 0 0 Z " fill="#EBF2F7" transform="translate(792,416)"/>
<path d="M0 0 C1.90798996 20.04123297 1.90798996 20.04123297 -1.14550781 24.77636719 C-4.62277197 27.90380598 -9.29479686 30 -14 30 C-14 22.08 -14 14.16 -14 6 C-1.125 0 -1.125 0 0 0 Z " fill="#FAFBFC" transform="translate(669,495)"/>
<path d="M0 0 C0 7.92 0 15.84 0 24 C-11 27 -11 27 -14 27 C-14 19.41 -14 11.82 -14 4 C-2 0 -2 0 0 0 Z " fill="#ECF2F7" transform="translate(771,456)"/>
<path d="M0 0 C0 8.25 0 16.5 0 25 C-10 28 -10 28 -13 28 C-13 20.08 -13 12.16 -13 4 C-2 0 -2 0 0 0 Z " fill="#F6F9FA" transform="translate(792,449)"/>
<path d="M0 0 C0 7.92 0 15.84 0 24 C-10 27 -10 27 -13 27 C-13 19.41 -13 11.82 -13 4 C-10.03 3.01 -7.06 2.02 -4 1 C-2 0 -2 0 0 0 Z " fill="#F5F8FA" transform="translate(770,423)"/>
<path d="M0 0 C0 7.59 0 15.18 0 23 C-10.75 27 -10.75 27 -13 27 C-13 19.41 -13 11.82 -13 4 C-10.03 3.01 -7.06 2.02 -4 1 C-2 0 -2 0 0 0 Z " fill="#EFF4F8" transform="translate(750,430)"/>
<path d="M0 0 C0 6.93 0 13.86 0 21 C-11.75 27 -11.75 27 -14 27 C-14 20.07 -14 13.14 -14 6 C-2.25 0 -2.25 0 0 0 Z " fill="#F1F5F8" transform="translate(694,484)"/>
<path d="M0 0 C0 7.59 0 15.18 0 23 C-4.95 24.485 -4.95 24.485 -10 26 C-10.99 26.33 -11.98 26.66 -13 27 C-13 19.41 -13 11.82 -13 4 C-10.69 3.34 -8.38 2.68 -6 2 C-1.88888889 0 -1.88888889 0 0 0 Z " fill="#F0F5F9" transform="translate(750,462)"/>
<path d="M0 0 C1.53140625 0.39832031 1.53140625 0.39832031 3.09375 0.8046875 C15.97267604 3.98756621 28.77973002 5.17183947 42 6 C42 6.33 42 6.66 42 7 C38.37 7.33 34.74 7.66 31 8 C31.928125 8.61875 32.85625 9.2375 33.8125 9.875 C35.875 11.25 37.9375 12.625 40 14 C39.34 14 38.68 14 38 14 C38 14.66 38 15.32 38 16 C38.69867187 16.20496094 39.39734375 16.40992188 40.1171875 16.62109375 C41.02726563 16.89050781 41.93734375 17.15992188 42.875 17.4375 C43.77992188 17.70433594 44.68484375 17.97117187 45.6171875 18.24609375 C48 19 48 19 50 20 C50 20.66 50 21.32 50 22 C42.11904522 19.87267321 34.73535411 16.92252817 27.25 13.6875 C26.10998535 13.19983154 24.9699707 12.71216309 23.79541016 12.2097168 C20.52825039 10.81113416 17.26397171 9.40600252 14 8 C12.3987233 7.31443624 10.79720114 6.62944518 9.1953125 5.9453125 C6.12813041 4.63501291 3.06306524 3.31990266 0 2 C0 1.34 0 0.68 0 0 Z " fill="#166518" transform="translate(480,610)"/>
<path d="M0 0 C0 8.25 0 16.5 0 25 C-2.31 25 -4.62 25 -7 25 C-7 17.41 -7 9.82 -7 2 C-3 0 -3 0 0 0 Z " fill="#E9F0F6" transform="translate(806,446)"/>
<path d="M0 0 C0 8.25 0 16.5 0 25 C-1.98 25.33 -3.96 25.66 -6 26 C-6 18.08 -6 10.16 -6 2 C-1 0 -1 0 0 0 Z " fill="#F3F7F9" transform="translate(805,411)"/>
<path d="M0 0 C0.33 0 0.66 0 1 0 C1 2.97 1 5.94 1 9 C11.56 9 22.12 9 33 9 C33 7.02 33 5.04 33 3 C33.33 3 33.66 3 34 3 C34.495 6.96 34.495 6.96 35 11 C23.12 11 11.24 11 -1 11 C-1 3 -1 3 0 0 Z " fill="#2F4565" transform="translate(581,352)"/>
<path d="M0 0 C5.94 0 11.88 0 18 0 C17.01 0.495 17.01 0.495 16 1 C15.67 2.32 15.34 3.64 15 5 C9.555 4.505 9.555 4.505 4 4 C4 5.65 4 7.3 4 9 C3.34 9 2.68 9 2 9 C2 7.35 2 5.7 2 4 C-1.3 4 -4.6 4 -8 4 C-8 3.67 -8 3.34 -8 3 C-5.69 3 -3.38 3 -1 3 C-0.67 2.01 -0.34 1.02 0 0 Z " fill="#063B71" transform="translate(882,469)"/>
<path d="M0 0 C-3.57995133 2.38663422 -7.22029634 3.35265318 -11.3125 4.5 C-12.80888466 4.92606293 -14.30498412 5.35312896 -15.80078125 5.78125 C-16.51314941 5.98492188 -17.22551758 6.18859375 -17.95947266 6.3984375 C-20.66383354 7.19570302 -23.33366936 8.08437613 -26 9 C-26 8.34 -26 7.68 -26 7 C-24.35 6.67 -22.7 6.34 -21 6 C-21 4.68 -21 3.36 -21 2 C-13.87049629 0.09879901 -7.36259293 -0.22424141 0 0 Z " fill="#38870B" transform="translate(982,560)"/>
<path d="M0 0 C6.93 1.65 13.86 3.3 21 5 C20.67 5.99 20.34 6.98 20 8 C17.73511226 8.96740978 16.45862734 9.12618657 14.07714844 8.47094727 C13.4277832 8.17244873 12.77841797 7.8739502 12.109375 7.56640625 C11.40039062 7.24736328 10.69140625 6.92832031 9.9609375 6.59960938 C9.23132813 6.25736328 8.50171875 5.91511719 7.75 5.5625 C7.00492187 5.22412109 6.25984375 4.88574219 5.4921875 4.53710938 C3.65672135 3.70173696 1.82770445 2.85222033 0 2 C0 1.34 0 0.68 0 0 Z " fill="#2F7432" transform="translate(480,610)"/>
<path d="M0 0 C3.63 0 7.26 0 11 0 C11 1.65 11 3.3 11 5 C7.37 5 3.74 5 0 5 C0 3.35 0 1.7 0 0 Z " fill="#D6DFE9" transform="translate(886,473)"/>
<path d="M0 0 C3.63 0 7.26 0 11 0 C11 1.65 11 3.3 11 5 C7.37 5 3.74 5 0 5 C0 3.35 0 1.7 0 0 Z " fill="#ECF1F6" transform="translate(872,473)"/>
<path d="M0 0 C0.66 0.33 1.32 0.66 2 1 C2 1.99 2 2.98 2 4 C-1.05919048 5.32031054 -4.12288284 6.6298406 -7.1875 7.9375 C-8.48397461 8.49727539 -8.48397461 8.49727539 -9.80664062 9.06835938 C-10.64775391 9.42607422 -11.48886719 9.78378906 -12.35546875 10.15234375 C-13.51018677 10.6472229 -13.51018677 10.6472229 -14.68823242 11.15209961 C-17.10931334 12.04009349 -19.46269424 12.55847348 -22 13 C-17.85892017 9.79302463 -13.43789232 7.30175969 -8.875 4.75 C-8.05128906 4.27820313 -7.22757813 3.80640625 -6.37890625 3.3203125 C-5.59128906 2.87945312 -4.80367187 2.43859375 -3.9921875 1.984375 C-3.27401855 1.57928711 -2.55584961 1.17419922 -1.81591797 0.75683594 C-1.21666504 0.50708008 -0.61741211 0.25732422 0 0 Z " fill="#D4DFEB" transform="translate(678,447)"/>
<path d="M0 0 C5.307523 -0.15323557 10.16682447 0.37748572 15.375 1.375 C16.09816406 1.50132812 16.82132813 1.62765625 17.56640625 1.7578125 C19.39247035 2.10041364 21.19928953 2.54247683 23 3 C23.33 3.66 23.66 4.32 24 5 C18.1111566 5.21221057 13.16709687 4.55320433 7.5 3 C6.40945313 2.71382812 6.40945313 2.71382812 5.296875 2.421875 C3.52893469 1.95662755 1.76411067 1.47956407 0 1 C0 0.67 0 0.34 0 0 Z " fill="#E1EDE0" transform="translate(514,621)"/>
<path d="M0 0 C1.32 0.99 2.64 1.98 4 3 C1.39985473 4.03227862 -1.20426369 5.05105152 -3.8125 6.0625 C-4.55048828 6.35705078 -5.28847656 6.65160156 -6.04882812 6.95507812 C-11.66015625 9.11328125 -11.66015625 9.11328125 -15 8 C-10.05 5.36 -5.1 2.72 0 0 Z " fill="#23632F" transform="translate(859,649)"/>
<path d="M0 0 C0.99 0.33 1.98 0.66 3 1 C2.01 1.495 2.01 1.495 1 2 C1.33 2.66 1.66 3.32 2 4 C-1.63 4.33 -5.26 4.66 -9 5 C-9.33 4.34 -9.66 3.68 -10 3 C-6.54153783 0.69435855 -5.0333286 0.91231894 -1 1 C-0.67 0.67 -0.34 0.34 0 0 Z " fill="#1661A6" transform="translate(767,481)"/>
<path d="M0 0 C-6.03076923 4.92307692 -6.03076923 4.92307692 -10.9375 5.3125 C-11.948125 5.209375 -12.95875 5.10625 -14 5 C-11.75043698 2.75043698 -9.93676737 1.99489035 -7 0.8125 C-6.113125 0.44769531 -5.22625 0.08289063 -4.3125 -0.29296875 C-2 -1 -2 -1 0 0 Z " fill="#4C9722" transform="translate(604,596)"/>
<path d="M0 0 C-2.6895528 2.6895528 -5.45327417 3.69331154 -9 5 C-9.99 4.67 -10.98 4.34 -12 4 C-8.41084094 -0.78554541 -5.58334594 -0.37222306 0 0 Z " fill="#21344F" transform="translate(603,572)"/>
<path d="M0 0 C2.64 0 5.28 0 8 0 C7.67 0.99 7.34 1.98 7 3 C2.545 3.495 2.545 3.495 -2 4 C-1.34 2.68 -0.68 1.36 0 0 Z " fill="#0B4D88" transform="translate(874,469)"/>
<path d="M0 0 C6.30267439 0.36776168 11.33251843 1.16625922 17 4 C15.02 4.99 15.02 4.99 13 6 C12.67 5.34 12.34 4.68 12 4 C9.19521805 3.08514427 9.19521805 3.08514427 5.9375 2.375 C4.83277344 2.11460937 3.72804688 1.85421875 2.58984375 1.5859375 C1.30787109 1.29589844 1.30787109 1.29589844 0 1 C0 0.67 0 0.34 0 0 Z " fill="#2C7F0A" transform="translate(621,609)"/>
<path d="M0 0 C0.66 0.33 1.32 0.66 2 1 C0.515 2.485 0.515 2.485 -1 4 C0.32 4.66 1.64 5.32 3 6 C0.03 6 -2.94 6 -6 6 C-2.25 1.125 -2.25 1.125 0 0 Z " fill="#87878F" transform="translate(757,221)"/>
<path d="M0 0 C4.16138263 -0.08159574 7.9472484 0.01751476 12 1 C11.34 1.66 10.68 2.32 10 3 C5.86169011 2.69903201 3.48152976 2.32101984 0 0 Z " fill="#A7CCA5" transform="translate(514,621)"/>
<path d="M0 0 C0.66 0.33 1.32 0.66 2 1 C1.38722388 3.96175123 0.74627478 5.38058783 -1 8 C-1.99 7.67 -2.98 7.34 -4 7 C-2.68 4.69 -1.36 2.38 0 0 Z " fill="#E5F2DD" transform="translate(597,564)"/>
<path d="M0 0 C0.66 0.33 1.32 0.66 2 1 C2 1.99 2 2.98 2 4 C-2.625 6.125 -2.625 6.125 -6 5 C-4.02 3.35 -2.04 1.7 0 0 Z " fill="#E8EDF3" transform="translate(678,447)"/>
<path d="M0 0 C2.97 0 5.94 0 9 0 C7.3125 1.5625 7.3125 1.5625 5 3 C2.25 2.6875 2.25 2.6875 0 2 C0 1.34 0 0.68 0 0 Z " fill="#1C6222" transform="translate(489,614)"/>
</svg>
